<svg xmlns="http://www.w3.org/2000/svg" viewBox="0 0 198.05 69.5"><defs><style>.cls-1{fill:#fff;}</style></defs><g id="Capa_2" data-name="Capa 2"><g id="Capa_1-2" data-name="Capa 1"><path class="cls-1" d="M113.08,33.58c1.88-2.6,5.44-2.44,6.7,0a4.48,4.48,0,0,1,2.94-1.83c2.77-.4,4.48,1,4.55,3.89,0,2.48,0,5,0,7.45,0,.38-.12.48-.48.47-1,0-2,0-3,0-.45,0-.52-.17-.51-.56,0-2,0-4,0-6.08,0-.1,0-.2,0-.3,0-.52,0-1.12-.57-1.33a1.54,1.54,0,0,0-1.64.48,3.61,3.61,0,0,0-.88,2.67c0,1.52,0,3,0,4.57,0,.4-.09.56-.53.54-1,0-1.92,0-2.88,0-.45,0-.52-.16-.52-.56,0-2.1,0-4.21,0-6.31,0-.54.05-1.12-.57-1.4a1.73,1.73,0,0,0-1.77.6,3.68,3.68,0,0,0-.74,2.3c0,1.61,0,3.21,0,4.81,0,.4-.07.57-.52.56-1,0-2,0-2.95,0-.33,0-.45-.09-.45-.44,0-3.57,0-7.13,0-10.7,0-.37.12-.49.48-.48.95,0,1.89,0,2.83,0,.39,0,.49.14.46.49S113.08,33.1,113.08,33.58Z"/><path class="cls-1" d="M20.73,53.51a12.86,12.86,0,0,1,7.39,2.09c.51.33,1,.67,1.52,1a10.82,10.82,0,0,0,11.87,0,19,19,0,0,1,4.73-2.45,13.74,13.74,0,0,1,11.33,1.45,26.69,26.69,0,0,0,3.75,2.14A1.26,1.26,0,0,1,62,59.34a1.32,1.32,0,0,1-1.69.75A12,12,0,0,1,58.12,59c-.76-.47-1.5-1-2.29-1.42a10.74,10.74,0,0,0-11.15.1,29.77,29.77,0,0,1-3.58,2.08,13.61,13.61,0,0,1-12.31-.63c-.81-.45-1.56-1-2.36-1.45a10.75,10.75,0,0,0-11.3,0,35.11,35.11,0,0,1-3.9,2.24,5.74,5.74,0,0,1-1,.33,1.27,1.27,0,0,1-1.53-.93,1.26,1.26,0,0,1,.77-1.57,17.06,17.06,0,0,0,3.68-2A12.85,12.85,0,0,1,20.73,53.51Z"/><path class="cls-1" d="M78.06,35.45c0-2.49,0-5,0-7.46,0-.44.11-.58.57-.57,1,0,2,0,2.95,0,.37,0,.47.11.47.48,0,1.78,0,3.56,0,5.35,0,.47.09.66.62.64,1.54,0,3.08,0,4.63,0,.44,0,.58-.1.57-.56,0-1.78,0-3.57,0-5.35,0-.45.11-.59.56-.57.94,0,1.89,0,2.83,0,.47,0,.6.11.6.6,0,4.26,0,8.53,0,12.8,0,.74,0,1.48,0,2.22,0,.38-.08.53-.49.51-1,0-2,0-3,0-.42,0-.49-.14-.49-.51,0-1.74,0-3.49,0-5.23,0-.45-.11-.57-.56-.57-1.59,0-3.17,0-4.75,0-.4,0-.51.12-.5.5,0,1.75,0,3.49,0,5.23,0,.45-.1.59-.56.58-1,0-1.93,0-2.89,0-.42,0-.54-.11-.53-.53C78.07,40.5,78.06,38,78.06,35.45Z"/><path class="cls-1" d="M127.49,47.33a8.61,8.61,0,0,1,5.22,1.89c.32.25.41.45.15.82a19.5,19.5,0,0,0-1.23,2c-.24.44-.4.54-.86.19A5.58,5.58,0,0,0,126.26,51a4.7,4.7,0,1,0,3.4,8.67,6.29,6.29,0,0,0,1.48-1c.33-.33.49-.23.71.11.45.69.91,1.37,1.42,2,.3.38.2.59-.11.87A9.19,9.19,0,0,1,126.39,64a7.89,7.89,0,0,1-7.31-5.4C117.19,52.72,121.07,47.32,127.49,47.33Z"/><path class="cls-1" d="M85.5,24.34c-4.56,0-7.82-2.69-8.44-7-.88-6.07,3.88-10.19,9.35-9.61a8.72,8.72,0,0,1,4.68,1.87c.31.25.36.44.12.78-.47.7-.9,1.42-1.32,2.15-.19.33-.32.4-.66.14a5.89,5.89,0,0,0-3.53-1.36c-4-.08-5.47,3.77-4.2,6.71,1.11,2.58,4,3.42,6.64,2A6.61,6.61,0,0,0,89.6,19c.19-.18.31-.19.46,0,.55.79,1.09,1.59,1.66,2.36.22.29,0,.42-.13.59a8.79,8.79,0,0,1-5.16,2.33C86.07,24.32,85.71,24.33,85.5,24.34Z"/><path class="cls-1" d="M102.7,41.94a4.46,4.46,0,0,1-7.12.22A4.67,4.67,0,0,1,95,39.75c0-2.43,0-4.85,0-7.28,0-.41.11-.56.54-.54,1,0,1.92,0,2.88,0,.45,0,.53.16.53.56,0,2,0,4,0,6.07,0,.62,0,1.3.69,1.59a1.86,1.86,0,0,0,2-.44,3.27,3.27,0,0,0,1-2.57c0-1.54,0-3.09,0-4.63,0-.43.09-.6.56-.59,1,0,1.92,0,2.89,0,.34,0,.5.06.5.46q0,5.34,0,10.7c0,.38-.14.47-.49.46-.92,0-1.85,0-2.77,0-.37,0-.55-.08-.51-.49S102.7,42.39,102.7,41.94Z"/><path class="cls-1" d="M152.71,62.16a4.61,4.61,0,0,1-5,1.64A3.52,3.52,0,0,1,145,60.09c0-2.53,0-5.05,0-7.57,0-.35.11-.45.44-.44,1,0,2,0,3,0,.45,0,.52.17.52.57,0,1.9,0,3.8,0,5.71a3.85,3.85,0,0,0,0,.48c.05.57,0,1.24.7,1.47a1.92,1.92,0,0,0,2-.41,3.21,3.21,0,0,0,1-2.54c0-1.56,0-3.13,0-4.69,0-.48.14-.6.61-.59.94,0,1.88,0,2.82,0,.36,0,.49.1.49.47,0,3.57,0,7.13,0,10.7,0,.37-.13.47-.49.47-.94,0-1.88,0-2.82,0-.4,0-.49-.15-.46-.5S152.71,62.64,152.71,62.16Z"/><path class="cls-1" d="M110.23,14.14a4.44,4.44,0,0,1,4.69-1.87A3.38,3.38,0,0,1,118,15.51c.19,2.73,0,5.48.07,8.22,0,.28-.13.34-.37.34-1.06,0-2.12,0-3.18,0-.39,0-.35-.22-.35-.47V18.2c0-.2,0-.4,0-.6,0-.7.07-1.46-.79-1.77a2.24,2.24,0,0,0-2.39.85,4.1,4.1,0,0,0-.62,2.46c0,1.46,0,2.92,0,4.38,0,.41-.09.57-.53.55-1,0-2,0-2.94,0-.34,0-.45-.09-.45-.44,0-3.56,0-7.12,0-10.69,0-.38.12-.47.48-.46q1.41,0,2.82,0c.39,0,.49.13.46.48S110.23,13.64,110.23,14.14Z"/><path class="cls-1" d="M35.54,69.5a13,13,0,0,1-7.33-2.11c-.49-.32-1-.62-1.47-.94a10.47,10.47,0,0,0-5.84-1.74,1.26,1.26,0,0,1-1.43-1.33,1.29,1.29,0,0,1,1.46-1.31,12.88,12.88,0,0,1,7,2c.79.51,1.57,1,2.4,1.48a10.73,10.73,0,0,0,10.57-.07c1.41-.76,2.67-1.77,4.16-2.4a13.38,13.38,0,0,1,5.15-1,1.32,1.32,0,0,1,1.44,1.35,1.28,1.28,0,0,1-1.42,1.29,10.53,10.53,0,0,0-5.84,1.72,17.15,17.15,0,0,1-5.23,2.63A16.53,16.53,0,0,1,35.54,69.5Z"/><path class="cls-1" d="M164.76,51.81a7,7,0,0,1,4.43,1.39c.32.25.4.47.13.83a17.32,17.32,0,0,0-1.09,1.73c-.2.36-.33.44-.7.15a3.57,3.57,0,0,0-2.81-.79,2.7,2.7,0,0,0-2.25,3.11,2.82,2.82,0,0,0,3.22,2.45,5.29,5.29,0,0,0,2.49-1.13c.27-.21.39-.21.55.13.31.67.67,1.32,1,2a.49.49,0,0,1-.12.72,7.43,7.43,0,0,1-9,.2,5.77,5.77,0,0,1-1.94-6.28A5.71,5.71,0,0,1,163.5,52,5.55,5.55,0,0,1,164.76,51.81Z"/><path class="cls-1" d="M191.39,55.93A5.06,5.06,0,0,0,189,55l-.24,0c-.46,0-1.12-.08-1.23.48s.55.53.92.68a21.42,21.42,0,0,1,2.38,1,3.36,3.36,0,0,1,2,3.61,3.47,3.47,0,0,1-2.75,2.92,7,7,0,0,1-6.27-1.13c-.29-.21-.34-.37-.13-.67.42-.61.82-1.24,1.2-1.88.18-.31.3-.37.62-.13a4.2,4.2,0,0,0,2.68.91c.38,0,.92,0,1-.45s-.44-.55-.78-.69A12.9,12.9,0,0,1,185.08,58a3.19,3.19,0,0,1,.43-5.36,6.64,6.64,0,0,1,6.86.27c.29.18.36.34.18.67C192.14,54.32,191.78,55.12,191.39,55.93Z"/><path class="cls-1" d="M193.76,31.7a6.42,6.42,0,0,1,3.65,1c.33.21.44.39.23.76-.35.65-.66,1.33-1,2-.14.29-.26.33-.54.15a4.24,4.24,0,0,0-2.61-.72,1.26,1.26,0,0,0-.69.19c-.28.18-.32.43,0,.61a6,6,0,0,0,.93.41,11.3,11.3,0,0,1,2.81,1.33A3.28,3.28,0,0,1,196.3,43a6.4,6.4,0,0,1-6,.13c-1.85-.81-1.84-.84-.76-2.52.24-.37.41-.9.75-1s.67.38,1.05.55a4,4,0,0,0,2.31.46c.29,0,.66-.08.7-.45s-.29-.46-.53-.57c-.88-.39-1.8-.67-2.65-1.13A3.54,3.54,0,0,1,189,35,3.59,3.59,0,0,1,192,31.87,6.58,6.58,0,0,1,193.76,31.7Z"/><path class="cls-1" d="M121.38,18.25c0-.68,0-1.36,0-2,0-.36-.09-.49-.47-.49-1,0-1,0-1-1.06,0-.5,0-1,0-1.51s.1-.52.5-.52c1.1,0,1.1,0,1.1-1.15,0-.58,0-1.16,0-1.74,0-.28.08-.39.37-.39,1,0,2,0,3,0,.34,0,.4.14.39.43,0,.74,0,1.49,0,2.23-.05.56.16.69.67.64s.92,0,1.38,0c.28,0,.4.09.4.38q0,1.17,0,2.34c0,.3-.13.38-.4.37-.52,0-1,0-1.57,0-.36,0-.49.1-.48.47,0,.82,0,1.65,0,2.47,0,1.5.47,2.06,2,2.06.64,0,.66.24.64.71,0,.76,0,1.53,0,2.29,0,.24,0,.43-.34.44a8,8,0,0,1-3.93-.61,3.66,3.66,0,0,1-2.21-3.31c0-.66,0-1.33,0-2Z"/><path class="cls-1" d="M173.36,33.54v5.35c0,1.08.16,1.25,1.23,1.31.28,0,.28.14.28.33,0,.9,0,1.81,0,2.71,0,.28-.11.39-.39.4a9.2,9.2,0,0,1-2.51-.16c-1.6-.42-2.46-1.62-2.54-3.7-.06-1.41,0-2.84,0-4.26,0-2.5,0-5,0-7.51,0-.48.14-.6.6-.59.94,0,1.89,0,2.83,0,.41,0,.55.11.54.54C173.35,29.82,173.36,31.68,173.36,33.54Z"/><path class="cls-1" d="M139.23,54.6a4.46,4.46,0,0,1,2.12-2.36,3.55,3.55,0,0,1,1.57-.34c.29,0,.44.09.43.41,0,1,0,2,0,3.07,0,.26,0,.38-.36.36-2.35-.11-3.56,1-3.61,3.38,0,1.34,0,2.68,0,4,0,.45-.12.6-.57.58-1,0-2,0-2.95,0-.31,0-.41-.1-.41-.42V52.49c0-.32.1-.42.41-.41,1,0,2,0,2.95,0,.31,0,.42.1.41.41C139.21,53.14,139.23,53.79,139.23,54.6Z"/><path class="cls-1" d="M133.89,14.69a4.63,4.63,0,0,1,3-2.36l.18,0c.89-.14,1-.09,1,.8s0,1.72,0,2.58c0,.39-.12.47-.48.45a3.9,3.9,0,0,0-1.08.05,2.91,2.91,0,0,0-2.41,3.07c0,1.44,0,2.88,0,4.32,0,.38-.08.53-.49.51-1,0-2,0-3,0-.37,0-.47-.11-.47-.48q0-5.31,0-10.63c0-.36.09-.49.47-.48,1,0,1.92,0,2.89,0,.31,0,.42.09.41.41C133.88,13.49,133.89,14.09,133.89,14.69Z"/><path class="cls-1" d="M40.84,7.65a24.69,24.69,0,0,1,3.76.86,30.36,30.36,0,0,1,13.93,8.92A1.32,1.32,0,0,1,58.82,19a1.27,1.27,0,0,1-1.39.6,1.42,1.42,0,0,1-.75-.47,27.64,27.64,0,0,0-15.85-9c-1-.2-1.52-.81-1.29-1.62A1.25,1.25,0,0,1,40.84,7.65Z"/><path class="cls-1" d="M93,57.84c0-1.75,0-3.49,0-5.23,0-.43.12-.55.54-.54,1,0,2,0,3,0,.3,0,.42.08.42.41q0,5.4,0,10.82c0,.32-.11.41-.42.4-1,0-2.09,0-3.13,0-.38,0-.41-.17-.41-.47C93,61.44,93,59.64,93,57.84Z"/><path class="cls-1" d="M7.26,33.2A1.23,1.23,0,0,1,6,31.75a29.29,29.29,0,0,1,3.64-9.6,1.25,1.25,0,1,1,2.16,1.27A27.9,27.9,0,0,0,8.5,32.18,1.24,1.24,0,0,1,7.26,33.2Z"/><path class="cls-1" d="M99.05,47.6c-.88,1.11-1.66,2.09-2.43,3.09a.68.68,0,0,1-.6.3c-.86,0-1.72,0-2.69,0l1.75-3.24a.32.32,0,0,1,.31-.14Z"/><path class="cls-1" d="M60.16,37.13a58.34,58.34,0,0,1,8.1-19.58,1.41,1.41,0,0,0,0-1.87,1.38,1.38,0,0,0-1.91,0,26.21,26.21,0,0,0-3.84,3.45A36.72,36.72,0,0,0,55,31.88a53.21,53.21,0,0,0-2.67,11.3c-.09-.29-.14-.43-.18-.58C50.2,35.31,46,29.43,40.67,24.3a1.31,1.31,0,0,0-2,0,1.35,1.35,0,0,0,.15,2,16.73,16.73,0,0,1,2.67,3.53c2.74,4.76,4,10,4.64,15.35,0,.26-.07.36-.28.44a18.1,18.1,0,0,0-3.78,2.09,10.65,10.65,0,0,1-5.56,1.86c-.42,0-.52-.1-.52-.49q0-12.85,0-25.73a.59.59,0,0,1,.36-.6,3.44,3.44,0,0,0,1.93-3.17c0-3,0-6,0-8.95A2.88,2.88,0,0,0,37.07,8,2.19,2.19,0,0,1,36,5.59a1.19,1.19,0,0,0-1.22-1.28,1.24,1.24,0,0,0-1.37,1.21,10.59,10.59,0,0,0,0,1.26.63.63,0,0,1-.38.66,3.48,3.48,0,0,0-1.89,3.25c0,2.92,0,5.85,0,8.77A3.44,3.44,0,0,0,33,22.66a.69.69,0,0,1,.39.71c0,1.1,0,2.2,0,3.31v8.63c-.2-.12-.19-.29-.24-.44a48.8,48.8,0,0,0-2.28-5.61,1.36,1.36,0,0,0-1.91-.8,1.32,1.32,0,0,0-.5,1.91A49.92,49.92,0,0,1,32.08,41a65.83,65.83,0,0,1,1.22,7.65c.05.46,0,.61-.53.44A10,10,0,0,1,31,48.35c-1.12-.67-2.22-1.36-3.35-2a.7.7,0,0,1-.4-.71V19.18a.69.69,0,0,1,.4-.7,3.44,3.44,0,0,0,1.87-3.19V6.39A2.9,2.9,0,0,0,28.16,3.7a1.86,1.86,0,0,1-1-2.1,1.08,1.08,0,0,0,0-.18,1.32,1.32,0,1,0-2.64,0c0,.4,0,.8,0,1.2a.61.61,0,0,1-.37.66,3.42,3.42,0,0,0-1.87,3.19c0,2.94,0,5.89,0,8.83a3.4,3.4,0,0,0,1.82,3.16.76.76,0,0,1,.43.75c0,3.81,0,7.62,0,11.43,0,.13,0,.27,0,.41a51.26,51.26,0,0,0-3.74-8.34,1.19,1.19,0,0,1-.11-.64V17.67A2.94,2.94,0,0,0,19.39,15c-1.05-.57-1-1.35-1-2.27a2.94,2.94,0,0,0,0-.42A1.31,1.31,0,0,0,17.05,11a1.28,1.28,0,0,0-1.29,1.3q0,.78,0,1.56a.57.57,0,0,1-.36.61,3.41,3.41,0,0,0-1.92,3.11c0,3,0,6.05,0,9.07a3.35,3.35,0,0,0,1.85,3,.73.73,0,0,1,.42.75c0,3.58,0,7.17,0,10.76,0,.13.1.31-.1.42l-.2-.24a21.34,21.34,0,0,0-6.94-5.65,15.48,15.48,0,0,0-7.14-1.6A1.29,1.29,0,0,0,.1,35a1.28,1.28,0,0,0,.27,1.4,1.47,1.47,0,0,0,1.26.42,11.74,11.74,0,0,1,4.75.93A19.31,19.31,0,0,1,14.77,45c.66.93.65.94-.35,1.51-1.15.65-2.22,1.44-3.39,2.06-.5.26-.72.24-.94-.33A30.77,30.77,0,0,1,8.4,42.32a1.26,1.26,0,1,0-2.48.41,30.54,30.54,0,0,0,1.5,5.49c.49,1.27.48,1.27-.93,1.3C5.56,49.54,5,50,5,50.83a1.31,1.31,0,0,0,1.45,1.33,13.93,13.93,0,0,0,4.43-.72A22.55,22.55,0,0,0,15.37,49a11,11,0,0,1,8.5-1.29,12.57,12.57,0,0,1,4.38,2.17,13.83,13.83,0,0,0,10.87,2,17.22,17.22,0,0,0,5.55-2.65,10.76,10.76,0,0,1,12.07,0c1,.6,1.95,1.26,3,1.77a12.94,12.94,0,0,0,5.64,1.22,1.32,1.32,0,1,0,0-2.64c-.53,0-1.07-.07-1.64-.11a3.76,3.76,0,0,1,.16-.45,30.16,30.16,0,0,0,2.22-11.29,27.92,27.92,0,0,0-.56-5.91,1.22,1.22,0,0,0-1.88-.87c-.53.31-.67.79-.52,1.64A27.37,27.37,0,0,1,62,47c-.21.59-.26,1.49-.8,1.64s-1.1-.53-1.67-.81a1.11,1.11,0,0,1-.67-1.28A64.35,64.35,0,0,1,60.16,37.13ZM18,26.32c0,.73-.41,1.21-1,1.19s-.91-.49-.91-1.19V17.86c0-.71.37-1.15.95-1.15s.94.44.94,1.15c0,1.4,0,2.8,0,4.2ZM24,45a14.1,14.1,0,0,0-5.14-.11c-.49.07-.5-.09-.5-.48,0-3.62,0-7.25,0-10.87V30.36c0-.24,0-.45.27-.59A3.74,3.74,0,0,0,20.42,28a42.57,42.57,0,0,1,1.93,5.39,58.91,58.91,0,0,1,2.12,11.25C24.5,45,24.5,45.11,24,45Zm2.79-29.9c0,.75-.33,1.14-.94,1.14S25,15.85,25,15.1q0-4.23,0-8.47c0-.72.37-1.15.95-1.15s.92.44.92,1.16c0,1.4,0,2.81,0,4.21S26.83,13.69,26.82,15.11Zm8.85,4.22c0,.73-.41,1.13-1,1.11s-.89-.44-.9-1.18V10.84c0-.72.36-1.18.91-1.19s1,.42,1,1.14Q35.7,15.05,35.67,19.33ZM49.37,44.8c-.39,0-.61.06-.66-.46a48.61,48.61,0,0,0-1-5.73c-.05-.12,0-.14.11-.11a27.8,27.8,0,0,1,1.9,5.67C49.83,44.55,49.84,44.77,49.37,44.8Zm8.34-9a62.54,62.54,0,0,0-1.41,9.54c0,.43-.14.44-.49.3-1-.41-1.07-.4-1-1.47a45.56,45.56,0,0,1,5.67-18c.11,0,.17,0,.12.12A70,70,0,0,0,57.71,35.84Z"/><path class="cls-1" d="M87.61,57.44c-.12-.22-.26-.34.06-.57a5.26,5.26,0,0,0,1.87-5.93,4.61,4.61,0,0,0-4.62-3.32c-2.12,0-4.25,0-6.37,0-.34,0-.49.06-.49.46q0,7.59,0,15.19c0,.37.11.49.47.48,1,0,2,0,3,0,.4,0,.51-.13.5-.51,0-1.29,0-2.57,0-3.85,0-1.06,0-1,1.07-1.08a1,1,0,0,1,1.1.66c.73,1.47,1.52,2.91,2.29,4.36.11.21.19.42.5.41h4.16Zm-3.44-2.61c-.59.05-1.2,0-1.8,0-.27,0-.34-.11-.34-.36q0-.78,0-1.56a12.71,12.71,0,0,0,0-1.38c0-.5.16-.61.61-.58a11.31,11.31,0,0,1,1.74.12A1.61,1.61,0,0,1,85.76,53,1.78,1.78,0,0,1,84.17,54.83Z"/><path class="cls-1" d="M154.14,28c0-.41-.09-.56-.53-.55q-1.44.06-2.88,0c-.48,0-.57.15-.56.59,0,1.47,0,2.95,0,4.45a1,1,0,0,1-.19-.07,5.26,5.26,0,0,0-7.42,2.08,7.46,7.46,0,0,0-.37,5.62,4.8,4.8,0,0,0,8.14,2.24s.08,0,.13,0a5.8,5.8,0,0,1,0,.59c-.06.45.07.64.58.62.86-.05,1.72,0,2.58,0,.39,0,.51-.1.51-.49Q154.11,35.52,154.14,28Zm-4.23,11.51a2.09,2.09,0,0,1-3.59.14,3.43,3.43,0,0,1-.19-3.38A2.1,2.1,0,0,1,148.39,35a2.37,2.37,0,0,1,1.88,2.15c0,.22,0,.44,0,.66A3.25,3.25,0,0,1,149.91,39.48Z"/><path class="cls-1" d="M170.75,19.05c0-3.5,0-7,0-10.51,0-.48-.12-.62-.6-.6q-1.35.06-2.7,0c-.51,0-.65.14-.64.64,0,1.47,0,2.93,0,4.44-3.38-1.93-7.1-.46-8.1,3.15a7.78,7.78,0,0,0-.15,3.46c.36,2.05,1.3,3.72,3.4,4.42a4.38,4.38,0,0,0,5.09-1.32,5.07,5.07,0,0,1,0,.7c-.06.48.08.68.61.65.86,0,1.72,0,2.58,0,.41,0,.51-.13.5-.51C170.74,22.06,170.75,20.56,170.75,19.05Zm-4.16.87a2,2,0,0,1-1.89,1.17A2,2,0,0,1,162.84,20a3.56,3.56,0,0,1-.22-2.91,2.18,2.18,0,0,1,2.24-1.56,2.28,2.28,0,0,1,2,2c0,.29,0,.59.08.89A3.72,3.72,0,0,1,166.59,19.92Z"/><path class="cls-1" d="M111.55,55.37c-1.19-2.53-3.4-3.47-6.06-3.56a7,7,0,0,0-2.65.49A5.69,5.69,0,0,0,99,56.81a5.62,5.62,0,0,0,2.14,5.76,7.2,7.2,0,0,0,5.69,1.29A6,6,0,0,0,111.55,55.37Zm-6,5.33a2.66,2.66,0,0,1-2.66-2.8,2.64,2.64,0,1,1,5.26,0A2.66,2.66,0,0,1,105.55,60.7Z"/><path class="cls-1" d="M151.6,15.83c-1.15-2.56-3.34-3.52-6-3.63a7,7,0,0,0-2.6.42,5.72,5.72,0,0,0-4,4.77A5.62,5.62,0,0,0,141.26,23a7.32,7.32,0,0,0,5.24,1.29A6,6,0,0,0,151.6,15.83Zm-6,5.23a2.59,2.59,0,0,1-2.64-2.73,2.65,2.65,0,0,1,2.65-2.86,2.62,2.62,0,0,1,2.56,2.81A2.56,2.56,0,0,1,145.56,21.06Z"/><path class="cls-1" d="M175.49,58.65c1,0,2,0,3.06,0s2.13,0,3.19,0c.38,0,.56-.09.55-.5s0-1,0-1.5a5,5,0,0,0-3.08-4.44A6.23,6.23,0,0,0,172.12,54a6.52,6.52,0,0,0,0,7.53c2.35,3.14,7.18,2.93,9.93.89.22-.16.18-.3.07-.5-.37-.69-.75-1.37-1.09-2.07-.16-.33-.29-.32-.57-.14a6,6,0,0,1-2.38.93,2.79,2.79,0,0,1-2.94-1.43C174.92,58.84,174.89,58.62,175.49,58.65Zm1.24-3.88a1.53,1.53,0,0,1,1.57,1.14c.09.32.09.53-.36.49a12,12,0,0,0-1.2,0h-1.38c-.16,0-.32,0-.27-.24A1.91,1.91,0,0,1,176.73,54.77Z"/><path class="cls-1" d="M166.87,35.93A4,4,0,0,0,164,32.07a8.21,8.21,0,0,0-7,.92c-.25.15-.24.3-.12.54.34.65.68,1.31,1,2,.16.33.28.42.64.21a5.2,5.2,0,0,1,3.14-.86,1.36,1.36,0,0,1,1.15.65c.3.56.17.78-.46.8a10.29,10.29,0,0,0-4.53,1c-2.58,1.34-2,4.37-.49,5.6a4.36,4.36,0,0,0,6-.69,6,6,0,0,1,0,.76c-.06.46.13.58.57.56.86,0,1.73,0,2.59,0,.32,0,.41-.1.41-.41C166.89,40.73,167,38.33,166.87,35.93Zm-4,3.47a2,2,0,0,1-2,1.4.93.93,0,0,1-.43-1.71,3.28,3.28,0,0,1,1.7-.51C163.1,38.56,163.18,38.68,162.91,39.4Z"/><path class="cls-1" d="M177.26,19c1.06,0,2.13,0,3.19,0s2.09,0,3.13,0c.41,0,.53-.13.57-.53.34-3.38-1.56-6.41-5.54-6.3a5.74,5.74,0,0,0-5.42,3.66,6.4,6.4,0,0,0,1.62,7c2.5,2.14,6.66,1.79,9.08,0,.21-.16.2-.29.09-.5-.38-.71-.76-1.41-1.12-2.13-.14-.27-.27-.28-.51-.12a6,6,0,0,1-2.08.89,2.84,2.84,0,0,1-3.34-1.48C176.8,19.16,176.83,19,177.26,19ZM177,16.48a1.84,1.84,0,0,1,1.72-1.33,1.55,1.55,0,0,1,1.51,1.21c.08.31,0,.44-.33.43s-.84,0-1.26,0h-1.37C177,16.78,176.9,16.77,177,16.48Z"/><path class="cls-1" d="M180.54,38.49c1,0,2.08,0,3.13,0h3.24c.28,0,.42,0,.46-.37.42-3.19-1.3-6.56-5.48-6.45a5.69,5.69,0,0,0-5.54,3.91,6.25,6.25,0,0,0,2,6.93,7.74,7.74,0,0,0,8.79-.17c.21-.16.27-.28.13-.54-.38-.68-.75-1.37-1.09-2.07-.16-.32-.31-.31-.59-.13a6,6,0,0,1-2,.86A2.83,2.83,0,0,1,180.2,39C180,38.65,180,38.47,180.54,38.49ZM180.21,36a1.87,1.87,0,0,1,1.66-1.34,1.53,1.53,0,0,1,1.57,1.21c.08.3,0,.44-.32.43s-.88,0-1.32,0-.88,0-1.32,0C180.29,36.26,180.14,36.26,180.21,36Z"/><path class="cls-1" d="M133.62,38.49c1.06,0,2.13,0,3.19,0H140c.3,0,.48,0,.52-.4.38-3.92-2-6.55-5.49-6.41-2.46.09-4.37,1.06-5.34,3.38a6.09,6.09,0,0,0,1.06,6.83c2.33,2.61,6.87,2.35,9.45.46.26-.19.24-.36.11-.61-.37-.67-.73-1.34-1.07-2-.14-.28-.26-.33-.54-.14a5.74,5.74,0,0,1-2.15.89A2.78,2.78,0,0,1,133.29,39C133.14,38.59,133.21,38.48,133.62,38.49Zm-.29-2.55A1.83,1.83,0,0,1,135,34.63a1.51,1.51,0,0,1,1.56,1.06c.13.38.1.62-.4.58s-.8,0-1.2,0h-1.32C133.36,36.27,133.27,36.19,133.33,35.94Z"/><path class="cls-1" d="M97.47,19c1.06,0,2.13,0,3.19,0h3.25c.25,0,.38,0,.42-.34.63-4.23-2.56-7.21-6.72-6.36-4.84,1-5.82,6.78-3.27,9.85s7.24,2.59,9.8.64c.2-.16.13-.29,0-.46-.37-.69-.75-1.37-1.09-2.07-.15-.31-.29-.35-.58-.15a6.07,6.07,0,0,1-2,.85,2.85,2.85,0,0,1-3.41-1.46C97,19.17,97,19,97.47,19Zm1.29-3.85a1.54,1.54,0,0,1,1.6,1.1c.12.37.09.56-.37.54s-.83,0-1.25,0H97.42c-.15,0-.32,0-.28-.24A1.9,1.9,0,0,1,98.76,15.15Z"/></g></g></svg>